<svg width="31" height="30" viewBox="0 0 31 30" fill="none" xmlns="http://www.w3.org/2000/svg">
<path fill-rule="evenodd" clip-rule="evenodd" d="M3.53542 0.956613C3.86351 0.629014 4.25748 0.374883 4.69122 0.21106C5.12495 0.0472372 5.58855 -0.0225367 6.0513 0.00636257C6.51404 0.0352618 6.96536 0.162174 7.37534 0.378689C7.78532 0.595204 8.14461 0.896378 8.42939 1.26225L11.7952 5.5862C12.4121 6.37936 12.6296 7.41253 12.3858 8.38758L11.3602 12.494C11.3071 12.7067 11.31 12.9295 11.3685 13.1408C11.427 13.352 11.5391 13.5446 11.6939 13.6997L16.301 18.3068C16.4563 18.462 16.6492 18.5743 16.8608 18.6327C17.0724 18.6912 17.2956 18.6939 17.5086 18.6405L21.6131 17.6149C22.0943 17.4946 22.5965 17.4852 23.0818 17.5875C23.5672 17.6899 24.0229 17.9012 24.4145 18.2055L28.7385 21.5694C30.2929 22.7789 30.4354 25.0758 29.0441 26.4653L27.1053 28.4041C25.7177 29.7917 23.6438 30.4011 21.7106 29.7204C16.7626 27.9795 12.2701 25.1468 8.56628 21.4326C4.85227 17.7293 2.01962 13.2374 0.278396 8.29007C-0.400385 6.35874 0.209018 4.28302 1.59658 2.89545L3.53542 0.956613Z" fill="#0065B1"/>
</svg>
